<svg width="40" height="51" viewBox="0 0 40 51" fill="none" xmlns="http://www.w3.org/2000/svg">
<path d="M26.657 0.0522423C24.4312 0.309274 21.2812 2.27255 19.7172 4.37255C18.8148 5.57568 18.2843 6.72412 17.825 8.45224L17.5953 9.3163L17.6062 10.2351C17.6172 10.7382 17.6445 11.2085 17.6718 11.2851C17.7429 11.4655 17.8797 11.4929 18.8422 11.4983C19.6406 11.5038 19.6898 11.4983 20.3734 11.296C22.2 10.7655 23.5398 9.96709 24.4914 8.83505C24.7211 8.55615 25.0656 8.18427 25.2461 7.99834C25.8476 7.40771 26.6187 6.09521 27.0453 4.95771C27.4718 3.81474 27.6632 2.7538 27.7179 1.24443L27.7507 0.276461L27.6086 0.134274C27.45 -0.0243206 27.3625 -0.029789 26.657 0.0522423Z" fill="#717171"/>
<path d="M27.6884 13.7677C26.6056 13.8224 23.6907 14.6318 21.5962 15.4521C20.3274 15.9498 20.3274 15.9498 20.0759 15.9935C19.6384 16.0646 18.5665 15.7529 16.7235 15.0091C15.7446 14.6209 14.7384 14.3255 13.2509 13.9865C12.6274 13.8498 11.5939 13.8334 11.1454 13.9591C10.9649 14.0084 10.3962 14.1232 9.88214 14.2107C8.77745 14.4076 8.15401 14.599 7.32276 15.0091C4.8126 16.2341 3.10089 17.9951 1.74464 20.7513C1.14307 21.9654 0.700105 23.1521 0.37198 24.4154C-0.114739 26.2912 -0.125676 29.8896 0.350105 32.0716C0.404792 32.3396 0.454011 32.6568 0.454011 32.7826C0.454011 33.0451 0.50323 33.242 0.962605 35.0521C1.38917 36.7255 1.34542 36.5888 2.16026 38.6341C3.30323 41.5052 3.66417 42.1396 5.99932 45.3607C6.95635 46.6787 7.44307 47.2802 8.14854 47.9966C8.88682 48.7513 9.48292 49.1888 10.3251 49.6045C11.2767 50.0693 11.6923 50.1732 12.5673 50.1677C13.6884 50.1677 14.5907 49.938 16.3079 49.2162C17.3907 48.7623 17.4618 48.7404 19.4306 48.3357C20.0212 48.2099 20.5681 48.2209 21.3993 48.3576C21.6837 48.4013 22.1103 48.467 22.3399 48.4998C22.8048 48.5654 23.2751 48.7185 24.4892 49.2052C25.9548 49.7959 26.9884 50.0584 28.0712 50.124C29.6462 50.2224 31.1665 49.5224 32.7907 47.9638C34.4478 46.3615 35.9954 44.1685 37.5595 41.2099C37.9806 40.4115 38.6532 38.7763 38.7681 38.2841C38.8173 38.0873 38.8993 37.8412 38.9595 37.7427C39.0142 37.6443 39.0634 37.5076 39.0634 37.4474C39.0634 37.2505 38.6642 36.9388 37.9587 36.5834C36.6298 35.8998 35.3228 34.7295 34.4423 33.4115C33.8134 32.4654 33.179 31.049 33.0204 30.2123C32.7524 28.8341 32.6759 27.3248 32.829 26.2748C32.8673 26.0013 33.004 25.4271 33.1353 24.9896C33.6985 23.092 34.0868 22.3318 34.9673 21.3912C35.2353 21.1123 35.454 20.8552 35.454 20.8334C35.454 20.7404 36.7939 19.6193 37.122 19.4388C37.3024 19.3349 37.5321 19.1763 37.6306 19.0779C37.9314 18.7826 37.8876 18.6677 37.1329 17.7818C36.1212 16.5951 34.847 15.6216 33.3485 14.8943C32.4134 14.4404 31.7681 14.2162 30.8657 14.0302C29.9415 13.8334 28.5634 13.7185 27.6884 13.7677Z" fill="#717171"/>
</svg>
